<?xml version="1.0" encoding="UTF-8"?>
<svg version="1.1" xmlns="http://www.w3.org/2000/svg" width="512" height="512">
<path d="M0 0 C13.78670514 0.80963905 27.56478732 1.33793086 41.37062907 1.68535924 C42.35308759 1.71015815 43.33554612 1.73495705 44.34777611 1.76050744 C49.28333662 1.88380512 54.21898663 2.00303404 59.15468085 2.12083995 C89.04696968 2.84183951 118.92198642 3.85495263 148.78174365 5.43428385 C151.08914006 5.55453205 153.39675254 5.66909424 155.70451617 5.78205419 C192.49447061 7.60219905 192.49447061 7.60219905 206.98561931 15.39507604 C207.97574016 15.91049962 207.97574016 15.91049962 208.98586345 16.4363358 C214.75470471 19.53492687 219.78247983 23.21504631 224.61061931 27.64507604 C225.36600993 28.30894322 226.12140056 28.97281041 226.89968181 29.65679479 C240.55085326 42.34628578 249.47450321 60.70107201 250.88728106 79.28417099 C250.99765301 83.317601 251.01620219 87.34074194 250.99829936 91.3751328 C251.00248104 92.92587828 251.0079631 94.47662069 251.01461917 96.02735752 C251.02898333 100.25414989 251.02485755 104.48074578 251.01745236 108.7075485 C251.01270043 113.2796025 251.0252484 117.85161521 251.03546977 122.42365575 C251.05262392 131.36750914 251.05350477 140.31129218 251.04825687 149.25515775 C251.04420741 156.5287452 251.04566793 163.80231194 251.05100513 171.07589841 C251.05175355 172.1130533 251.05250197 173.15020819 251.05327307 174.21879202 C251.05480463 176.32611238 251.05634298 178.43343274 251.05788804 180.54075309 C251.07160098 200.28181788 251.066184 220.02284298 251.05470283 239.76390686 C251.04477301 257.80038616 251.05770894 275.83676284 251.08163702 293.87322632 C251.10605492 312.41948933 251.11562919 330.96570459 251.10898429 349.51198334 C251.10549789 359.91371143 251.10768579 370.31536065 251.12523532 380.71707654 C251.13999102 389.5722857 251.14054888 398.42736044 251.12316441 407.28256706 C251.11467949 411.79499251 251.11244307 416.30717816 251.12781596 420.81959081 C251.14174848 424.96069518 251.13679129 429.10135625 251.11757673 433.24243554 C251.11384243 434.73020749 251.11666335 436.21801569 251.12718838 437.70575509 C251.21426272 450.97072796 249.22028123 464.1940448 242.86061931 476.02007604 C242.51700358 476.6801566 242.17338786 477.34023717 241.81935954 478.02032018 C238.72076847 483.78916144 235.04064903 488.81693656 230.61061931 493.64507604 C229.94675212 494.40046666 229.28288493 495.15585729 228.59890056 495.93413854 C215.90940956 509.58530999 197.55462333 518.50895994 178.97152436 519.92173779 C174.93809434 520.03210974 170.9149534 520.05065892 166.88056254 520.03275609 C165.32981707 520.03693777 163.77907465 520.04241983 162.22833782 520.0490759 C158.00154545 520.06344006 153.77494956 520.05931428 149.54814684 520.05190909 C144.97609285 520.04715716 140.40408013 520.05970513 135.83203959 520.0699265 C126.8881862 520.08708065 117.94440317 520.0879615 109.0005376 520.0827136 C101.72695014 520.07866414 94.45338341 520.08012466 87.17979693 520.08546185 C85.6240646 520.08658449 85.6240646 520.08658449 84.03690333 520.0877298 C81.92958296 520.08926136 79.82226261 520.09079971 77.71494225 520.09234477 C57.97387747 520.10605771 38.23285236 520.10064073 18.49178848 520.08915956 C0.45530918 520.07922974 -17.5810675 520.09216567 -35.61753098 520.11609375 C-54.16379398 520.14051165 -72.71000924 520.15008592 -91.25628799 520.14344102 C-101.65801609 520.13995462 -112.0596653 520.14214252 -122.4613812 520.15969205 C-131.31659036 520.17444775 -140.1716651 520.17500561 -149.02687172 520.15762114 C-153.53929717 520.14913622 -158.05148282 520.1468998 -162.56389546 520.16227269 C-166.70499983 520.17620521 -170.84566091 520.17124802 -174.98674019 520.15203346 C-176.47451214 520.14829916 -177.96232034 520.15112008 -179.45005975 520.16164511 C-192.71503262 520.24871945 -205.93834946 518.25473796 -217.76438069 511.89507604 C-218.42446126 511.55146031 -219.08454183 511.20784459 -219.76462483 510.85381627 C-225.5334661 507.7552252 -230.56124122 504.07510576 -235.38938069 499.64507604 C-236.14477132 498.98120885 -236.90016194 498.31734166 -237.67844319 497.63335729 C-254.62716361 481.87861889 -261.30225466 460.43183392 -262.44324422 437.82918859 C-262.51852883 436.48477924 -262.5945502 435.14041099 -262.67123377 433.79608071 C-262.87594162 430.13696757 -263.06399794 426.47717879 -263.24745941 422.81694531 C-263.36605724 420.4697854 -263.48895746 418.12288437 -263.61292195 415.77600217 C-265.19398902 385.69752547 -266.16730179 355.60253154 -266.90026186 325.49232448 C-267.02099881 320.53858777 -267.14599142 315.58496689 -267.27365804 310.63140416 C-267.31164024 309.15325895 -267.31164024 309.15325895 -267.35038976 307.64525221 C-267.71459758 293.84502453 -268.32929153 280.07655973 -269.15138461 266.29631209 C-278.2455854 113.67941992 -278.2455854 113.67941992 -229.99790722 58.6030243 C-168.70333895 -9.7023754 -84.94253242 -5.04787536 0 0 Z " fill="#E24C3F" transform="translate(261.38938069343567,-7.645076036453247)"/>
<path d="M0 0 C15.22125 -0.103125 30.4425 -0.20625 46.125 -0.3125 C50.90500488 -0.35802002 55.68500977 -0.40354004 60.60986328 -0.45043945 C66.51342773 -0.47302246 66.51342773 -0.47302246 69.29000854 -0.47721863 C71.20111945 -0.4848228 73.11220861 -0.50225267 75.02316284 -0.52787781 C91.59015232 -0.73864404 105.43365501 0.72223166 117.859375 12.80859375 C128.13881038 23.72500269 131.54464797 37.33487577 131.375 52 C131.38660156 53.00289062 131.39820313 54.00578125 131.41015625 55.0390625 C131.35011464 70.52979894 125.981255 84.47770554 115.37890625 95.71875 C104.40111284 106.03840232 90.52245865 107.3062031 76.21875 107.1953125 C74.79529012 107.19157606 73.37182764 107.18873207 71.94836426 107.18673706 C68.22640716 107.17915025 64.50460953 107.15954519 60.78271484 107.1373291 C56.30388686 107.11313864 51.82500517 107.10406607 47.34613037 107.09242249 C40.56397647 107.07311718 33.78217152 107.03476056 27 107 C27 126.8 27 146.6 27 167 C18.09 167 9.18 167 0 167 C0 111.89 0 56.78 0 0 Z " fill="#FEFEFD" transform="translate(86,171)"/>
<path d="M0 0 C0.00238835 0.77930311 0.00477671 1.55860622 0.00723743 2.36152458 C0.06645215 21.35045436 0.14204359 40.33925488 0.23571491 59.3280468 C0.28062204 68.51100388 0.32004838 77.69392261 0.34643555 86.87695312 C0.36945684 94.88373258 0.40290088 102.89039018 0.44870156 110.89707291 C0.47257818 115.13397455 0.49134331 119.37075592 0.49761391 123.60772324 C0.50369004 127.60179015 0.52378036 131.59554957 0.55427551 135.58950233 C0.56301543 137.04948219 0.56678677 138.50950229 0.56500816 139.96950722 C0.55814098 148.21311437 1.14821782 155.25230676 4 163 C4.4076576 164.37154085 4.80466613 165.74632409 5.1875 167.125 C5.455625 168.07375 5.72375 169.0225 6 170 C1.56284145 170.14483042 -2.87371277 170.23391752 -7.3125 170.3125 C-9.20645508 170.3753418 -9.20645508 170.3753418 -11.13867188 170.43945312 C-12.34716797 170.45556641 -13.55566406 170.47167969 -14.80078125 170.48828125 C-15.91622314 170.51446533 -17.03166504 170.54064941 -18.1809082 170.56762695 C-21 170 -21 170 -22.84448242 167.73901367 C-24.40346007 164.04364706 -24.6623629 160.98411778 -25 157 C-26.37671875 158.01320313 -26.37671875 158.01320313 -27.78125 159.046875 C-42.44587569 169.74695362 -55.03073541 174.96399392 -73.54296875 172.53515625 C-85.51095635 170.11868086 -95.39581059 164.66458381 -103 155 C-114.88424412 135.96440547 -115.65741936 110.32236843 -111.9375 88.6875 C-108.58546578 75.04440744 -101.5664099 63.29548285 -89.9375 55.25 C-81.00728984 49.90926236 -70.44430989 46.25669579 -60 46 C-58.75863281 45.938125 -57.51726562 45.87625 -56.23828125 45.8125 C-54.80478927 45.76746798 -53.37118653 45.72584165 -51.9375 45.6875 C-50.62652344 45.65011719 -49.31554687 45.61273438 -47.96484375 45.57421875 C-40.84866299 46.18449704 -33.92905006 48.26773749 -27 50 C-27 35.81 -27 21.62 -27 7 C-4.25 0 -4.25 0 0 0 Z " fill="#FEFDFC" transform="translate(342,168)"/>
<path d="M0 0 C0.81210937 -0.00773438 1.62421875 -0.01546875 2.4609375 -0.0234375 C3.2653125 -0.02085937 4.0696875 -0.01828125 4.8984375 -0.015625 C5.61435059 -0.01336914 6.33026367 -0.01111328 7.06787109 -0.00878906 C10.64827205 0.35355818 14.13375832 1.37718958 17.625 2.25 C17.625 9.18 17.625 16.11 17.625 23.25 C15.60375 23.353125 13.5825 23.45625 11.5 23.5625 C6.37381348 23.94180433 2.95365993 24.55921139 -1.375 27.25 C-2.035 27.25 -2.695 27.25 -3.375 27.25 C-5.62651203 31.81709148 -5.79866336 36.07631701 -6 41.0625 C-6.185625 45.1153125 -6.185625 45.1153125 -6.375 49.25 C1.215 49.25 8.805 49.25 16.625 49.25 C14.315 56.51 12.005 63.77 9.625 71.25 C4.345 71.25 -0.935 71.25 -6.375 71.25 C-6.37277939 72.48805893 -6.37055878 73.72611786 -6.36827087 75.00169373 C-6.34804146 86.64185222 -6.33302883 98.28200717 -6.32318783 109.92217922 C-6.31795849 115.90719266 -6.31085992 121.89219196 -6.29956055 127.87719727 C-6.28873347 133.64783429 -6.28272355 139.41845768 -6.28012276 145.18910408 C-6.27826818 147.39602943 -6.27464696 149.602954 -6.26926994 151.80987358 C-6.2620619 154.88946041 -6.26100896 157.96899014 -6.26147461 161.04858398 C-6.25787933 161.97071182 -6.25428406 162.89283966 -6.25057983 163.84291077 C-6.26094784 170.13594784 -6.26094784 170.13594784 -7.375 171.25 C-15.955 171.25 -24.535 171.25 -33.375 171.25 C-33.375 138.25 -33.375 105.25 -33.375 71.25 C-38.325 71.25 -43.275 71.25 -48.375 71.25 C-48.375 63.99 -48.375 56.73 -48.375 49.25 C-43.425 49.25 -38.475 49.25 -33.375 49.25 C-33.42140625 47.87328125 -33.4678125 46.4965625 -33.515625 45.078125 C-33.82416706 32.11818091 -33.72971402 20.48677457 -25.078125 10 C-17.59850289 2.31451673 -10.57271662 -0.09974261 0 0 Z " fill="#FEFBFB" transform="translate(408.375,167.75)"/>
<path d="M0 0 C0.11639269 9.70181939 0.20496611 19.40339454 0.25906086 29.10576248 C0.28503763 33.61210224 0.32021438 38.11796063 0.37719727 42.62402344 C0.43194686 46.98127654 0.46150993 51.33806975 0.47438622 55.69564056 C0.48354975 57.34928364 0.50144202 59.00290456 0.52865028 60.65634918 C0.70817342 72.02921914 -0.21070987 81.85740149 -7.25 91.375 C-15.14886437 98.91482508 -23.92565067 103.51300894 -34.9765625 103.34057617 C-35.72875565 103.34101425 -36.48094879 103.34145233 -37.25593567 103.34190369 C-39.7125657 103.33983364 -42.16849099 103.3165886 -44.625 103.29296875 C-46.33992134 103.28736642 -48.05484751 103.28309933 -49.76977539 103.28010559 C-54.26118462 103.26870694 -58.75229811 103.23928323 -63.24359131 103.20599365 C-67.83553061 103.17518482 -72.42751816 103.16157724 -77.01953125 103.14648438 C-86.01315004 103.11440826 -95.00655033 103.06327286 -104 103 C-99.14070669 97.15029767 -93.91491171 91.76685672 -88.53808594 86.39282227 C-87.5944475 85.44618599 -86.65101243 84.49934695 -85.70776367 83.55232239 C-83.16502589 81.00081355 -80.61911292 78.45249672 -78.07230663 75.90504956 C-76.48069098 74.31272058 -74.8897905 72.71968065 -73.29914093 71.12638664 C-67.74914689 65.56716887 -62.19660398 60.01051192 -56.64160156 54.45629883 C-51.46209401 49.27739439 -46.28821635 44.09291175 -41.11688781 38.90584141 C-36.67192099 34.447826 -32.22313483 29.99364692 -27.77131867 25.54247135 C-25.11417152 22.88557956 -22.45861193 20.22714639 -19.80687714 17.56485176 C-16.85824168 14.60479167 -13.9017158 11.65273962 -10.94433594 8.70141602 C-10.06328186 7.81474243 -9.18222778 6.92806885 -8.2744751 6.01452637 C-7.07171936 4.81806236 -7.07171936 4.81806236 -5.84466553 3.59742737 C-5.14636501 2.89858209 -4.4480645 2.1997368 -3.72860336 1.47971439 C-2 0 -2 0 0 0 Z " fill="#FE6F62" transform="translate(104,1)"/>
<path d="M0 0 C1.07679268 0.5456662 1.07679268 0.5456662 2.17533875 1.10235596 C2.72116104 1.38149841 3.26698334 1.66064087 3.8293457 1.94824219 C4.08378771 9.75799626 4.25838125 17.56667526 4.37866211 25.37963867 C4.42317495 28.03624596 4.49690229 30.6874118 4.58374023 33.34350586 C4.70565479 37.16947162 4.76188607 40.99177623 4.8059082 44.81933594 C4.85752106 45.99781601 4.90913391 47.17629608 4.96231079 48.39048767 C4.96569712 53.41401874 4.85696959 56.6504965 1.67114258 60.67375183 C-2.95378573 64.90202683 -7.93674717 68.3746014 -13.4206543 71.38574219 C-14.56018555 72.02382813 -15.6997168 72.66191406 -16.8737793 73.31933594 C-24.34680359 77.01157661 -31.4380977 78.38365256 -39.63549805 76.33105469 C-46.31764894 73.74957417 -51.11740766 69.20570947 -54.2331543 62.74511719 C-59.33487087 48.71539661 -59.6521681 28.50968694 -54.4206543 14.57714844 C-50.22207978 5.7470214 -44.20449562 0.56081182 -34.9831543 -2.86425781 C-23.95819679 -5.78262892 -10.20875212 -5.19386942 0 0 Z " fill="#E24C3F" transform="translate(312.170654296875,241.0517578125)"/>
<path d="M0 0 C9.013125 -0.0825 18.02625 -0.165 27.3125 -0.25 C31.54767456 -0.30462402 31.54767456 -0.30462402 35.8684082 -0.36035156 C38.13752485 -0.37204763 40.40664997 -0.38223727 42.67578125 -0.390625 C43.82864624 -0.41108887 44.98151123 -0.43155273 46.16931152 -0.45263672 C54.974866 -0.45638496 63.06434003 0.72028336 70 6.5 C70.99 7.7375 70.99 7.7375 72 9 C72.556875 9.639375 73.11375 10.27875 73.6875 10.9375 C78.53356538 18.5527456 77.88892394 28.35271847 76.53515625 36.953125 C75.05084054 42.67959745 72.63917232 47.24067071 68 51 C62.0200299 54.40526075 56.36930062 56.12928739 49.49707031 56.11352539 C48.38090332 56.11340454 47.26473633 56.11328369 46.11474609 56.11315918 C44.94766113 56.10804321 43.78057617 56.10292725 42.578125 56.09765625 C41.50095215 56.09664917 40.4237793 56.09564209 39.31396484 56.09460449 C35.29263239 56.08937501 31.27131512 56.07541374 27.25 56.0625 C18.2575 56.041875 9.265 56.02125 0 56 C0 37.52 0 19.04 0 0 Z " fill="#E24C3F" transform="translate(113,196)"/>
<path d="M0 0 C17.82 0 35.64 0 54 0 C50.37640508 4.22752741 46.92300898 8.20259254 43.02026367 12.10913086 C42.33373215 12.79829086 42.33373215 12.79829086 41.6333313 13.50137329 C40.14735091 14.99169085 38.6578203 16.47839696 37.16796875 17.96484375 C36.12504228 19.0084449 35.08226421 20.05219437 34.03962708 21.09608459 C31.86861311 23.26856386 29.69582299 25.43924625 27.52172852 27.60864258 C24.72947079 30.39516082 21.94178413 33.18620245 19.15537548 35.97856808 C17.01000369 38.12754077 14.86227171 40.2741418 12.71380043 42.42001534 C11.68396843 43.44917896 10.65488232 44.4790895 9.62654686 45.50974846 C8.19769769 46.94112097 6.76532304 48.36897164 5.33276367 49.79663086 C4.51813156 50.61046738 3.70349945 51.42430389 2.86418152 52.26280212 C1 54 1 54 0 54 C0 36.18 0 18.36 0 0 Z " fill="#C74F45" transform="translate(0,105)"/>
<path d="M0 0 C1.70157488 3.14194309 2.73096734 6.26837725 3.75 9.6875 C7.63368959 21.39547264 14.9925052 29.96735996 25.875 35.875 C37.29564598 41.07734947 52.11195304 42.06057511 64.1875 38.5625 C70.16019278 36.2992498 75.08159735 32.79029215 80.1875 29.0234375 C82.4326632 27.40816731 84.48800753 26.12315048 87 25 C87.20496094 25.69867188 87.40992188 26.39734375 87.62109375 27.1171875 C87.89050781 28.02726562 88.15992188 28.93734375 88.4375 29.875 C88.70433594 30.77992188 88.97117187 31.68484375 89.24609375 32.6171875 C89.92613826 34.98275381 89.92613826 34.98275381 91 37 C100.24 37 109.48 37 119 37 C119 37.66 119 38.32 119 39 C118.01 39.495 118.01 39.495 117 40 C117.495 41.98 117.495 41.98 118 44 C113.56284145 44.14483042 109.12628723 44.23391752 104.6875 44.3125 C103.42486328 44.35439453 102.16222656 44.39628906 100.86132812 44.43945312 C99.65283203 44.45556641 98.44433594 44.47167969 97.19921875 44.48828125 C96.08377686 44.51446533 94.96833496 44.54064941 93.8190918 44.56762695 C91 44 91 44 89.15551758 41.73901367 C87.59653993 38.04364706 87.3376371 34.98411778 87 31 C86.0821875 31.67546875 85.164375 32.3509375 84.21875 33.046875 C69.55412431 43.74695362 56.96926459 48.96399392 38.45703125 46.53515625 C26.55772503 44.13254842 16.47991111 38.70557205 9 29 C3.49780737 19.81565169 -0.45349496 10.88387896 0 0 Z " fill="#FE7467" transform="translate(230,300)"/>
<path d="M0 0 C0.33 0 0.66 0 1 0 C0.68398973 14.07682119 -4.16167432 26.83114251 -13.9453125 37.02734375 C-25.58937955 47.82664515 -39.56654994 49.47398936 -54.953125 49.29296875 C-56.34844501 49.28735681 -57.74377103 49.28309429 -59.13909912 49.28010559 C-62.76903296 49.26878222 -66.39859284 49.2394271 -70.02838135 49.20599365 C-73.74933822 49.1750189 -77.47035695 49.1615424 -81.19140625 49.14648438 C-88.46110593 49.11454182 -95.7305001 49.06350229 -103 49 C-103 47.02 -103 45.04 -103 43 C-102.22707108 42.99635437 -101.45414215 42.99270874 -100.65779114 42.98895264 C-93.3182114 42.95084156 -85.97912638 42.89373179 -78.63986683 42.81609726 C-74.86804968 42.7768472 -71.09645813 42.74455025 -67.32446289 42.72900391 C-63.67369263 42.71368698 -60.02354358 42.67898291 -56.3730526 42.63169098 C-54.99110042 42.61703003 -53.60905948 42.60896793 -52.2270298 42.60811615 C-38.21435598 42.59081902 -24.66969905 39.87229033 -14.00390625 30.1875 C-7.36037782 23.10106968 -2.85712023 13.67336108 -0.875 4.1875 C-0.70742187 3.39730469 -0.53984375 2.60710937 -0.3671875 1.79296875 C-0.18542969 0.90544922 -0.18542969 0.90544922 0 0 Z " fill="#FE7063" transform="translate(216,235)"/>
<path d="M0 0 C7.77372957 -0.10197178 15.54728468 -0.17170477 23.3215332 -0.21972656 C25.96254929 -0.23975996 28.60352149 -0.26699451 31.24438477 -0.30175781 C35.05496091 -0.350639 38.86494721 -0.37305267 42.67578125 -0.390625 C43.84393875 -0.41127014 45.01209625 -0.43191528 46.21565247 -0.45318604 C55.00443603 -0.45555614 63.07920859 0.73267382 70 6.5 C70.99 7.7375 70.99 7.7375 72 9 C72.556875 9.639375 73.11375 10.27875 73.6875 10.9375 C76.90379037 15.99167058 77.27232328 21.02739885 77.125 26.875 C77.11597656 27.56335938 77.10695313 28.25171875 77.09765625 28.9609375 C77.07432513 30.64077838 77.03846326 32.32043746 77 34 C76.67 34 76.34 34 76 34 C75.90203125 32.97519531 75.8040625 31.95039063 75.703125 30.89453125 C75.55297049 29.53375598 75.40187913 28.17308386 75.25 26.8125 C75.188125 26.13896484 75.12625 25.46542969 75.0625 24.77148438 C74.50486417 20.00834497 73.17244531 17.52708858 70 14 C70 13.34 70 12.68 70 12 C60.35056496 8.02721804 51.52966658 6.54747665 41.11328125 6.48828125 C39.93025925 6.47033005 38.74723724 6.45237885 37.52836609 6.43388367 C33.78977916 6.38016812 30.05131703 6.34600929 26.3125 6.3125 C23.76105048 6.27929277 21.20961736 6.24480001 18.65820312 6.20898438 C12.43891413 6.12446417 6.21960817 6.05595203 0 6 C0 4.02 0 2.04 0 0 Z " fill="#FD7164" transform="translate(113,196)"/>
<path d="M0 0 C0 18.48 0 36.96 0 56 C-0.33 56 -0.66 56 -1 56 C-1 39.17 -1 22.34 -1 5 C-3.475 4.505 -3.475 4.505 -6 4 C-6.85335937 3.75121094 -7.70671875 3.50242188 -8.5859375 3.24609375 C-20.91444983 -0.32813882 -33.93723679 -0.86119735 -45.46875 5.32421875 C-52.85722323 9.89403742 -56.67355066 15.61126055 -59 24 C-59.46910456 27.66462296 -59.59839969 31.30870135 -59.6875 35 C-59.72166016 35.96550781 -59.75582031 36.93101562 -59.79101562 37.92578125 C-59.87272699 40.28373782 -59.94212119 42.64135863 -60 45 C-60.33 45 -60.66 45 -61 45 C-62.06006749 14.71876429 -62.06006749 14.71876429 -52.82421875 3.71484375 C-38.27998498 -9.95735888 -16.72150489 -8.36075245 0 0 Z " fill="#FD8176" transform="translate(316,243)"/>
<path d="M0 0 C8.91 0 17.82 0 27 0 C27 1.98 27 3.96 27 6 C18.09 6 9.18 6 0 6 C0 4.02 0 2.04 0 0 Z " fill="#FF796C" transform="translate(86,338)"/>
<path d="M0 0 C0 1.98 0 3.96 0 6 C-1.30324219 6.05607422 -1.30324219 6.05607422 -2.6328125 6.11328125 C-11.26220784 6.58388911 -11.26220784 6.58388911 -19 10 C-19.66 10 -20.32 10 -21 10 C-21.66 11.65 -22.32 13.3 -23 15 C-23.33 15 -23.66 15 -24 15 C-24.3251235 10.33989644 -24.0494016 7.6211644 -21 4 C-14.68594681 -0.97029315 -7.6831292 -0.42163514 0 0 Z " fill="#FE786C" transform="translate(426,191)"/>
<path d="M0 0 C2 3 2 3 1.58447266 5.26831055 C1.2807373 6.13238525 0.97700195 6.99645996 0.6640625 7.88671875 C0.18066406 9.2934082 0.18066406 9.2934082 -0.3125 10.72851562 C-0.8384375 12.19321289 -0.8384375 12.19321289 -1.375 13.6875 C-1.71789062 14.67556641 -2.06078125 15.66363281 -2.4140625 16.68164062 C-3.26403238 19.12530403 -4.13048042 21.5632244 -5 24 C-10.28 24 -15.56 24 -21 24 C-21 22.02 -21 20.04 -21 18 C-15.72 18 -10.44 18 -5 18 C-4.5978125 16.0509375 -4.5978125 16.0509375 -4.1875 14.0625 C-3.12555237 9.24935606 -1.64596736 4.64162796 0 0 Z " fill="#FC7265" transform="translate(423,221)"/>
<path d="M0 0 C1 2 1 2 0 6 C-8.58 6 -17.16 6 -26 6 C-26 4.35 -26 2.7 -26 1 C-17.42 0.67 -8.84 0.34 0 0 Z " fill="#FE6F62" transform="translate(401,338)"/>
<path d="M0 0 C4.95 0 9.9 0 15 0 C15 1.98 15 3.96 15 6 C10.05 6 5.1 6 0 6 C0 4.02 0 2.04 0 0 Z " fill="#FC6C5F" transform="translate(360,239)"/>
<path d="M0 0 C0.33 0 0.66 0 1 0 C0.70382139 7.65621703 -0.22204256 15.19967662 -4 22 C-6.13671875 23.30859375 -6.13671875 23.30859375 -8 24 C-7.02175739 21.53692485 -6.0342431 19.08079233 -5 16.640625 C-2.69671672 11.13433841 -1.13426644 5.86037661 0 0 Z " fill="#FB776B" transform="translate(216,235)"/>
<path d="M0 0 C1.57554035 2.88628401 2.46276373 5.53342384 3.125 8.75 C3.29257813 9.54921875 3.46015625 10.3484375 3.6328125 11.171875 C3.81457031 12.07679688 3.81457031 12.07679688 4 13 C3.01 12.67 2.02 12.34 1 12 C0.01751476 7.9472484 -0.08159574 4.16138263 0 0 Z " fill="#FC8479" transform="translate(230,300)"/>
</svg>
